<svg height="682.66669pt" viewBox="-21 -21 682.66669 682.66669" width="682.66669pt" xmlns="http://www.w3.org/2000/svg"><path d="m351.542969 478.515625c-9.316407 6.257813-21.761719 5.0625-29.714844-2.855469l-20.34375-20.347656c-7.914063-7.953125-9.109375-20.394531-2.855469-29.710938l20.230469-30.289062c-4.984375-9.625-9.074219-19.6875-12.226563-30.054688l-36.234374-7.773437c-11.003907-2.289063-18.910157-11.957031-18.96875-23.195313v-28.578124c.058593-11.238282 7.964843-20.90625 18.96875-23.195313l35.773437-7.085937c3.257813-10.347657 7.464844-20.371094 12.574219-29.945313l-20.117188-31.085937c-6.253906-9.316407-5.058594-21.757813 2.855469-29.710938l20.34375-20.347656c7.957031-7.914063 20.398437-9.109375 29.714844-2.855469l30.285156 20.230469c2.289063-1.144532 4.457031-2.285156 6.742187-3.316406v-86.96875h-388.570312v457.140624h388.570312v-87.199218c-2.054687-.910156-4-1.941406-5.945312-2.972656zm-324.6875-264.117187c-2.300781-1.96875-3.730469-4.773438-3.964844-7.796876-.234375-3.023437.738281-6.011718 2.710937-8.316406l68.570313-80c4.105469-4.800781 11.316406-5.359375 16.117187-1.257812 4.792969 4.105468 5.355469 11.316406 1.253907 16.117187l-68.570313 80c-1.972656 2.300781-4.773437 3.730469-7.796875 3.964844-3.023437.234375-6.015625-.738281-8.320312-2.710937zm176.460937-81.710938-148.574218 194.285156c-2.125 2.839844-5.480469 4.503906-9.03125 4.457032-2.523438-.007813-4.972657-.851563-6.964844-2.402344-2.417969-1.835938-3.988282-4.558594-4.378906-7.566406-.386719-3.007813.445312-6.046876 2.316406-8.433594l148.574218-194.28125c3.976563-4.546875 10.800782-5.210938 15.582032-1.519532 4.78125 3.691407 5.863281 10.464844 2.476562 15.460938zm0 0"/><path d="m603.65625 297.828125c-8.59375-1.769531-15.496094-8.144531-17.945312-16.574219-2.53125-8.640625-5.980469-16.996094-10.28125-24.910156-4.203126-7.675781-3.808594-17.050781 1.023437-24.34375l20.230469-30.285156-20.339844-21.144532-31.203125 20.113282c-7.292969 4.839844-16.664063 5.234375-24.339844 1.03125-7.917969-4.292969-16.273437-7.738282-24.917969-10.285156-8.421874-2.445313-14.796874-9.355469-16.566406-17.945313l-7.089844-35.769531-29.371093-.570313-7.886719 36.339844c-1.765625 8.589844-8.140625 15.5-16.570312 17.945313-8.640626 2.546874-16.992188 5.992187-24.914063 10.285156-1.574219.792968-3.21875 1.445312-4.914063 1.941406-6.59375 1.972656-13.726562.882812-19.429687-2.972656l-30.28125-20.222656-21.144531 20.339843 20.113281 31.199219c4.835937 7.292969 5.234375 16.667969 1.03125 24.34375-4.304687 7.914062-7.75 16.269531-10.289063 24.910156-2.441406 8.429688-9.351562 14.804688-17.941406 16.574219l-35.769531 7.085937-.570313 29.375 36.339844 7.882813c8.589844 1.769531 15.5 8.144531 17.941406 16.574219 2.539063 8.640625 5.984376 16.996094 10.289063 24.910156 4.203125 7.675781 3.804687 17.050781-1.03125 24.34375l-20.230469 30.285156 20.347656 21.144532 31.195313-20.113282c3.820313-2.566406 8.320313-3.921875 12.914063-3.886718 2.203124.023437 4.394531.328124 6.515624.914062 1.695313.496094 3.339844 1.148438 4.914063 1.941406 7.921875 4.292969 16.273437 7.738282 24.914063 10.285156 8.429687 2.445313 14.804687 9.355469 16.570312 17.945313l7.085938 35.769531 29.375.570313 7.886718-36.339844c1.769532-8.589844 8.144532-15.5 16.566406-17.945313 8.644532-2.546874 17-5.992187 24.917969-10.285156 7.675781-4.203125 17.046875-3.808594 24.339844 1.03125l30.289063 20.222656 21.140624-20.339843-20.117187-31.199219c-4.832031-7.292969-5.226563-16.667969-1.023437-24.34375 4.300781-7.914062 7.75-16.269531 10.28125-24.910156 2.449218-8.429688 9.351562-14.804688 17.945312-16.574219l35.773438-7.085937.570312-29.375zm-146.511719 113.601563c-50.496093 0-91.433593-40.9375-91.433593-91.429688s40.9375-91.429688 91.433593-91.429688c50.492188 0 91.425781 40.9375 91.425781 91.429688.105469 24.28125-9.488281 47.597656-26.660156 64.765625-17.167968 17.171875-40.484375 26.765625-64.765625 26.664063zm0 0"/><path d="m457.144531 251.429688c-37.871093 0-68.574219 30.699218-68.574219 68.570312s30.703126 68.570312 68.574219 68.570312c37.871094 0 68.566407-30.699218 68.566407-68.570312s-30.695313-68.570312-68.566407-68.570312zm0 80c-6.316406 0-11.433593-5.117188-11.433593-11.429688s5.117187-11.429688 11.433593-11.429688c6.3125 0 11.425781 5.117188 11.425781 11.429688s-5.113281 11.429688-11.425781 11.429688zm0 0"/><path d="m0 594.289062c0 25.242188 20.46875 45.710938 45.710938 45.710938h297.144531c25.25 0 45.714843-20.46875 45.714843-45.710938v-22.859374h-388.570312zm160 0h68.570312c6.3125 0 11.429688 5.117188 11.429688 11.421876 0 6.316406-5.117188 11.433593-11.429688 11.433593h-68.570312c-6.3125 0-11.429688-5.117187-11.429688-11.433593 0-6.304688 5.117188-11.421876 11.429688-11.421876zm0 0"/><path d="m388.570312 45.710938c0-25.242188-20.464843-45.710938-45.714843-45.710938h-137.144531v22.855469c0 6.316406-5.117188 11.433593-11.421876 11.433593-6.316406 0-11.433593-5.117187-11.433593-11.433593v-22.855469h-137.144531c-25.242188 0-45.710938 20.46875-45.710938 45.710938v22.859374h388.570312zm0 0"/></svg>