<svg height="682pt" viewBox="-90 -21 682 682.66669" width="682pt" xmlns="http://www.w3.org/2000/svg"><path d="m87.179688 388.570312h68.570312v68.574219h-68.570312zm0 0"/><path d="m52.894531 114.289062c-6.3125 0-11.429687 5.117188-11.429687 11.421876v457.144531c0 6.316406 5.117187 11.433593 11.429687 11.433593h297.144531v-80c0-12.628906 10.234376-22.859374 22.855469-22.859374h80v-365.71875c0-6.304688-5.117187-11.421876-11.429687-11.421876h-57.144532c0 18.933594-15.347656 34.28125-34.28125 34.28125h-205.71875c-18.9375 0-34.28125-15.347656-34.28125-34.28125zm125.710938 342.855469c0 12.621094-10.234375 22.855469-22.855469 22.855469h-68.570312c-12.625 0-22.859376-10.234375-22.859376-22.855469v-68.574219c0-12.625 10.234376-22.859374 22.859376-22.859374h68.570312c12.621094 0 22.855469 10.234374 22.855469 22.859374zm240 0h-45.710938c-6.3125 0-11.429687-5.117187-11.429687-11.433593 0-6.304688 5.117187-11.421876 11.429687-11.421876h45.710938c6.316406 0 11.433593 5.117188 11.433593 11.421876 0 6.316406-5.117187 11.433593-11.433593 11.433593zm0-45.714843h-102.855469c-6.3125 0-11.429688-5.117188-11.429688-11.429688s5.117188-11.429688 11.429688-11.429688h102.855469c6.316406 0 11.433593 5.117188 11.433593 11.429688s-5.117187 11.429688-11.433593 11.429688zm0-114.285157h-45.710938c-6.3125 0-11.429687-5.117187-11.429687-11.433593 0-6.304688 5.117187-11.421876 11.429687-11.421876h45.710938c6.316406 0 11.433593 5.117188 11.433593 11.421876 0 6.316406-5.117187 11.433593-11.433593 11.433593zm-102.855469-68.574219h102.855469c6.316406 0 11.433593 5.117188 11.433593 11.429688s-5.117187 11.429688-11.433593 11.429688h-102.855469c-6.3125 0-11.429688-5.117188-11.429688-11.429688s5.117188-11.429688 11.429688-11.429688zm-102.855469 0h57.144531c6.308594 0 11.425782 5.117188 11.425782 11.429688s-5.117188 11.429688-11.425782 11.429688h-57.144531c-6.3125 0-11.429687-5.117188-11.429687-11.429688s5.117187-11.429688 11.429687-11.429688zm0 45.71875h114.285157c6.308593 0 11.425781 5.117188 11.425781 11.421876 0 6.316406-5.117188 11.433593-11.425781 11.433593h-114.285157c-6.3125 0-11.429687-5.117187-11.429687-11.433593 0-6.304688 5.117187-11.421876 11.429687-11.421876zm0 114.28125h57.144531c6.308594 0 11.425782 5.117188 11.425782 11.429688s-5.117188 11.429688-11.425782 11.429688h-57.144531c-6.3125 0-11.429687-5.117188-11.429687-11.429688s5.117187-11.429688 11.429687-11.429688zm0 45.71875h114.285157c6.308593 0 11.425781 5.117188 11.425781 11.421876 0 6.316406-5.117188 11.433593-11.425781 11.433593h-114.285157c-6.3125 0-11.429687-5.117187-11.429687-11.433593 0-6.304688 5.117187-11.421876 11.429687-11.421876zm-32.148437-246.640624c2.300781-3.503907 6.332031-5.460938 10.507812-5.109376 4.167969.351563 7.816406 2.960938 9.5 6.792969 1.6875 3.832031 1.140625 8.28125-1.425781 11.597657l-57.140625 80c-1.953125 2.734374-5.007812 4.46875-8.355469 4.75-.308593 0-.628906 0-.9375 0-3.03125 0-5.9375-1.207032-8.082031-3.351563l-22.855469-22.855469c-4.332031-4.480468-4.269531-11.613281.136719-16.019531 4.410156-4.410156 11.539062-4.46875 16.019531-.136719l13.316407 13.316406zm-59.28125 18.0625c6.3125 0 11.429687 5.117187 11.429687 11.433593 0 6.3125-5.117187 11.425781-11.429687 11.425781h-34.285156v68.574219h68.570312v-11.433593c0-6.304688 5.117188-11.421876 11.429688-11.421876 6.308593 0 11.425781 5.117188 11.425781 11.421876v11.433593c0 12.621094-10.234375 22.855469-22.855469 22.855469h-68.570312c-12.625 0-22.859376-10.234375-22.859376-22.855469v-68.574219c0-12.625 10.234376-22.859374 22.859376-22.859374zm0 0"/><path d="m144.320312 125.710938h205.71875c6.308594 0 11.425782-5.117188 11.425782-11.421876v-45.71875c0-6.308593-5.117188-11.425781-11.425782-11.425781h-45.71875c-6.308593 0-11.425781-5.117187-11.425781-11.433593 0-25.242188-20.46875-45.710938-45.714843-45.710938-25.246094 0-45.714844 20.46875-45.714844 45.710938 0 6.316406-5.117188 11.433593-11.425782 11.433593h-45.71875c-6.308593 0-11.425781 5.117188-11.425781 11.425781v45.71875c0 6.304688 5.117188 11.421876 11.425781 11.421876zm45.71875-45.710938h114.28125c6.3125 0 11.429688 5.117188 11.429688 11.429688 0 6.308593-5.117188 11.425781-11.429688 11.425781h-114.28125c-6.316406 0-11.433593-5.117188-11.433593-11.425781 0-6.3125 5.117187-11.429688 11.433593-11.429688zm0 0"/><path d="m372.894531 578.125 63.835938-63.835938h-63.835938zm0 0"/><path d="m452.894531 68.570312h-68.574219v22.859376h57.144532c18.933594 0 34.285156 15.347656 34.285156 34.28125v367.671874c-.007812 4.722657-1.003906 9.394532-2.914062 13.710938-.09375.246094-.238282.4375-.351563.679688-1.664063 3.652343-3.960937 6.988281-6.777344 9.847656l-89.464843 89.464844c-2.875 2.851562-6.230469 5.175781-9.910157 6.855468-.207031.089844-.375.230469-.589843.3125-4.324219 1.914063-8.992188 2.910156-13.71875 2.925782h-299.128907c-18.9375 0-34.289062-15.351563-34.289062-34.289063v-457.179687c0-18.933594 15.351562-34.28125 34.289062-34.28125h57.144531v-22.859376h-68.574218c-25.246094 0-45.714844 20.46875-45.714844 45.71875v480c0 25.242188 20.46875 45.710938 45.714844 45.710938h411.429687c25.25 0 45.710938-20.46875 45.710938-45.710938v-480c0-25.25-20.460938-45.71875-45.710938-45.71875zm0 0"/></svg>