<svg height="682pt" viewBox="-78 -21 682 682.66669" width="682pt" xmlns="http://www.w3.org/2000/svg"><path d="m42.214844 68.570312v-34.28125c0-18.9375-15.347656-34.289062-34.285156-34.289062-6.3125 0-11.429688 5.117188-11.429688 11.429688v617.140624c0 6.3125 5.117188 11.429688 11.429688 11.429688h145.144531c-28.75-20.0625-47.792969-51.242188-52.515625-85.980469-4.722656-34.742187 5.3125-69.871093 27.664062-96.875h-97.433594c-6.316406 0-11.433593-5.117187-11.433593-11.433593 0-6.304688 5.117187-11.421876 11.433593-11.421876h122.285157c43.203125-30.480468 100.90625-30.480468 144.109375 0h122.171875c6.316406 0 11.433593 5.117188 11.433593 11.421876 0 6.316406-5.117187 11.433593-11.433593 11.433593h-97.382813c22.355469 27.003907 32.390625 62.132813 27.671875 96.875-4.722656 34.738281-23.765625 65.917969-52.515625 85.980469h145.085938c6.3125 0 11.429687-5.117188 11.429687-11.429688v-537.140624h-388.574219c-12.621093 0-22.855468-10.234376-22.855468-22.859376zm137.140625 68.574219h240c6.316406 0 11.433593 5.117188 11.433593 11.425781 0 6.3125-5.117187 11.429688-11.433593 11.429688h-240c-6.3125 0-11.425781-5.117188-11.425781-11.429688 0-6.308593 5.113281-11.425781 11.425781-11.425781zm0 45.710938h240c6.316406 0 11.433593 5.117187 11.433593 11.433593 0 6.304688-5.117187 11.421876-11.433593 11.421876h-240c-6.3125 0-11.425781-5.117188-11.425781-11.421876 0-6.316406 5.113281-11.433593 11.425781-11.433593zm0 45.714843h240c6.316406 0 11.433593 5.117188 11.433593 11.429688s-5.117187 11.429688-11.433593 11.429688h-240c-6.3125 0-11.425781-5.117188-11.425781-11.429688s5.113281-11.429688 11.425781-11.429688zm0 45.71875h240c6.316406 0 11.433593 5.117188 11.433593 11.421876 0 6.316406-5.117187 11.433593-11.433593 11.433593h-240c-6.3125 0-11.425781-5.117187-11.425781-11.433593 0-6.304688 5.113281-11.421876 11.425781-11.421876zm0 45.710938h240c6.316406 0 11.433593 5.117188 11.433593 11.429688 0 6.308593-5.117187 11.425781-11.433593 11.425781h-240c-6.3125 0-11.425781-5.117188-11.425781-11.425781 0-6.3125 5.113281-11.429688 11.425781-11.429688zm0 45.710938h240c6.316406 0 11.433593 5.117187 11.433593 11.433593 0 6.3125-5.117187 11.425781-11.433593 11.425781h-240c-6.3125 0-11.425781-5.113281-11.425781-11.425781 0-6.316406 5.113281-11.433593 11.425781-11.433593zm-91.425781-22.855469h-57.140626c-6.316406 0-11.433593-5.117188-11.433593-11.425781 0-6.3125 5.117187-11.429688 11.433593-11.429688h57.140626c6.308593 0 11.425781 5.117188 11.425781 11.429688 0 6.308593-5.117188 11.425781-11.425781 11.425781zm0-91.425781h-57.140626c-6.316406 0-11.433593-5.117188-11.433593-11.429688s5.117187-11.429688 11.433593-11.429688h57.140626c6.308593 0 11.425781 5.117188 11.425781 11.429688s-5.117188 11.429688-11.425781 11.429688zm11.425781-102.859376c0 6.3125-5.117188 11.429688-11.425781 11.429688h-57.140626c-6.316406 0-11.433593-5.117188-11.433593-11.429688 0-6.308593 5.117187-11.425781 11.433593-11.425781h57.140626c6.308593 0 11.425781 5.117188 11.425781 11.425781zm0 0"/><path d="m487.929688 0h-434.582032c7.5625 9.835938 11.683594 21.878906 11.722656 34.289062v34.28125h457.144532v-34.28125c0-18.9375-15.347656-34.289062-34.285156-34.289062zm0 0"/><path d="m327.929688 537.144531c0-56.808593-46.054688-102.855469-102.859376-102.855469-56.808593 0-102.855468 46.046876-102.855468 102.855469 0 56.804688 46.046875 102.855469 102.855468 102.855469 56.78125-.0625 102.796876-46.078125 102.859376-102.855469zm-114.285157-11.433593h22.855469c18.9375 0 34.289062 15.351562 34.289062 34.289062s-15.351562 34.289062-34.289062 34.289062v11.421876c0 6.316406-5.117188 11.433593-11.429688 11.433593-6.308593 0-11.425781-5.117187-11.425781-11.433593v-11.421876h-22.855469c-6.316406 0-11.433593-5.117187-11.433593-11.433593 0-6.3125 5.117187-11.425781 11.433593-11.425781h45.710938c6.3125 0 11.429688-5.117188 11.429688-11.429688s-5.117188-11.429688-11.429688-11.429688h-22.855469c-18.9375 0-34.289062-15.347656-34.289062-34.28125 0-18.9375 15.351562-34.289062 34.289062-34.289062v-11.429688c0-6.308593 5.117188-11.425781 11.425781-11.425781 6.3125 0 11.429688 5.117188 11.429688 11.425781v11.429688h22.855469c6.316406 0 11.433593 5.117188 11.433593 11.429688 0 6.308593-5.117187 11.425781-11.433593 11.425781h-45.710938c-6.3125 0-11.429687 5.117187-11.429687 11.433593 0 6.304688 5.117187 11.421876 11.429687 11.421876zm0 0"/></svg>