<svg height="682pt" viewBox="-78 -21 682 682.66669" width="682pt" xmlns="http://www.w3.org/2000/svg"><path d="m219.816406 400c25.828125.507812 51.414063-5.085938 74.671875-16.332031-20.035156-10.394531-32.953125-30.738281-33.851562-53.292969-24.664063 16.664062-56.976563 16.664062-81.644531 0-.019532 22.597656-12.417969 43.371094-32.296876 54.117188 22.875 10.664062 47.882813 15.96875 73.121094 15.507812zm0 0"/><path d="m219.851562 320c31.515626 0 55.566407-30.71875 60.570313-60.433594.902344-5.300781 5.371094-9.253906 10.742187-9.496094 3.230469-.148437 5.074219-2.925781 10.996094-16.558593l.46875-1.066407c3.34375-6.882812 3.90625-14.792968 1.5625-22.078124-.859375-2.433594-2.550781-4.488282-4.765625-5.804688l-1.371093.695312c-3.542969 1.773438-7.75 1.585938-11.125-.492187-3.367188-2.085937-5.425782-5.761719-5.425782-9.726563v-7.613281c-.019531-27.269531-21.75-49.566406-49.015625-50.28125h-25.28125c-27.277343.691407-49.042969 22.992188-49.070312 50.28125v7.613281c0 3.964844-2.054688 7.652344-5.429688 9.730469-3.375 2.085938-7.589843 2.265625-11.132812.488281l-1.339844-.6875c-2.214844 1.320313-3.90625 3.363282-4.773437 5.796876-2.34375 7.28125-1.789063 15.183593 1.550781 22.070312l.496093 1.140625c5.898438 13.566406 7.746094 16.34375 10.96875 16.492187 5.378907.242188 9.855469 4.203126 10.753907 9.503907 5.042969 29.707031 29.085937 60.425781 60.621093 60.425781zm0 0"/><path d="m117.324219 392.480469-28.4375 3.539062c-20.007813 1.914063-35.277344 18.738281-35.242188 38.839844v49.140625c.003907 4.101562 3.328125 7.421875 7.425781 7.429688h328.003907c4.097656-.007813 7.421875-3.328126 7.425781-7.429688v-49.140625c.070312-20.019531-15.078125-36.8125-34.996094-38.800781l-38.730468-4.058594c-23.417969 19.363281-61.210938 30.855469-102.957032 30.855469-41.523437 0-79.164062-11.347657-102.492187-30.375zm0 0"/><path d="m487.929688 0h-434.582032c7.5625 9.835938 11.683594 21.878906 11.722656 34.289062v34.28125h457.144532v-34.28125c0-18.9375-15.347656-34.289062-34.285156-34.289062zm0 0"/><path d="m42.214844 68.570312v-34.28125c0-18.9375-15.347656-34.289062-34.285156-34.289062-6.3125 0-11.429688 5.117188-11.429688 11.429688v617.140624c0 6.3125 5.117188 11.429688 11.429688 11.429688h434.285156c6.3125 0 11.429687-5.117188 11.429687-11.429688v-537.140624h-388.574219c-12.621093 0-22.855468-10.234376-22.855468-22.859376zm125.714844 548.574219h-114.285157c-6.3125 0-11.429687-5.117187-11.429687-11.433593 0-6.304688 5.117187-11.421876 11.429687-11.421876h114.285157c6.308593 0 11.425781 5.117188 11.425781 11.421876 0 6.316406-5.117188 11.433593-11.425781 11.433593zm228.570312 0h-182.855469c-6.3125 0-11.429687-5.117187-11.429687-11.433593 0-6.304688 5.117187-11.421876 11.429687-11.421876h182.855469c6.3125 0 11.429688 5.117188 11.429688 11.421876 0 6.316406-5.117188 11.433593-11.429688 11.433593zm0-45.714843h-342.855469c-6.3125 0-11.429687-5.117188-11.429687-11.429688s5.117187-11.429688 11.429687-11.429688h342.855469c6.3125 0 11.429688 5.117188 11.429688 11.429688s-5.117188 11.429688-11.429688 11.429688zm-258.207031-300.421876c-10.675781-6.226562-18.472657-16.398437-21.714844-28.320312l-.488281-1.144531c-5.816406-12.457031-6.46875-26.703125-1.832032-39.644531 3.121094-8.308594 9.441407-15.019532 17.546876-18.632813 1.335937-.535156 2.570312-1.003906 3.714843-1.367187 3.023438-37.585938 33.988281-66.796876 71.6875-67.609376h25.28125c37.703125.808594 68.679688 30.007813 71.71875 67.59375.988281.324219 2.03125.726563 3.152344 1.144532 8.355469 3.558594 14.898437 10.375 18.109375 18.871094 4.644531 12.941406 3.976562 27.195312-1.847656 39.644531l-.445313 1.039062c-3.246093 11.953125-11.070312 22.152344-21.773437 28.390625-3.472656 13.578125-9.566406 26.351563-17.929688 37.597656v21.601563c1.621094 20.578125 17.867188 36.980469 38.433594 38.796875l41.953125 4.355469c31.566406 3.199219 55.566406 29.804687 55.496094 61.535156v49.140625c-.019531 16.71875-13.5625 30.265625-30.28125 30.289062h-328.003907c-16.71875-.023437-30.261718-13.570312-30.28125-30.289062v-49.140625c-.070312-31.734375 23.945313-58.351563 55.515626-61.535156l34.605468-4.320313c20.019532-1.914062 35.289063-18.75 35.25-38.855468v-21.714844c-8.328125-11.199219-14.394531-23.910156-17.867187-37.425782zm0 0"/></svg>