<svg width="13" height="14" viewBox="0 0 13 14" fill="none" xmlns="http://www.w3.org/2000/svg">
<path d="M11.4583 6.125H10.7708V4.15625C10.7708 1.86484 8.81719 0 6.41667 0C4.01615 0 2.0625 1.86484 2.0625 4.15625V6.125H1.375C0.615885 6.125 0 6.71289 0 7.4375V12.6875C0 13.4121 0.615885 14 1.375 14H11.4583C12.2174 14 12.8333 13.4121 12.8333 12.6875V7.4375C12.8333 6.71289 12.2174 6.125 11.4583 6.125ZM8.47917 6.125H4.35417V4.15625C4.35417 3.0707 5.27943 2.1875 6.41667 2.1875C7.55391 2.1875 8.47917 3.0707 8.47917 4.15625V6.125Z" fill="black"/>
</svg>
